<?xml version="1.0" encoding="UTF-8" standalone="no"?>
<!DOCTYPE svg PUBLIC "-//W3C//DTD SVG 20010904//EN"
              "http://www.w3.org/TR/2001/REC-SVG-20010904/DTD/svg10.dtd">

<svg xmlns="http://www.w3.org/2000/svg"
     width="138.866mm" height="138.866mm"
     viewBox="0 0 512 512">
  <path id="Seleção"
        fill="white" stroke="black" stroke-width="0"
        d="M 42.00,104.45
           C 56.90,103.17 64.29,111.29 74.00,121.00
             74.00,121.00 94.00,141.00 94.00,141.00
             94.00,141.00 210.00,257.00 210.00,257.00
             210.00,257.00 243.00,290.00 243.00,290.00
             245.39,292.39 252.90,300.96 256.00,300.96
             259.10,300.96 266.61,292.39 269.00,290.00
             269.00,290.00 303.00,256.00 303.00,256.00
             303.00,256.00 416.00,143.00 416.00,143.00
             416.00,143.00 438.00,121.00 438.00,121.00
             446.75,112.25 452.80,105.16 466.00,105.00
             481.99,104.82 485.23,110.23 496.00,121.00
             506.49,131.49 512.16,135.37 512.00,151.00
             511.94,156.29 511.28,160.37 508.52,165.00
             505.18,170.60 493.19,181.81 488.00,187.00
             488.00,187.00 449.00,226.00 449.00,226.00
             449.00,226.00 337.01,338.00 337.01,338.00
             337.01,338.00 326.00,350.00 326.00,350.00
             326.00,350.00 287.00,389.00 287.00,389.00
             278.51,397.48 270.63,406.25 258.00,407.53
             245.24,408.83 237.17,400.17 229.00,392.00
             229.00,392.00 187.00,350.00 187.00,350.00
             187.00,350.00 46.00,209.00 46.00,209.00
             46.00,209.00 19.00,182.00 19.00,182.00
             7.66,170.66 -0.20,165.01 0.00,148.00
             0.15,135.23 6.56,130.44 15.00,122.00
             25.07,111.93 27.56,107.03 42.00,104.45 Z" />
</svg>
